<svg xmlns="http://www.w3.org/2000/svg" width="229" height="59.75" viewBox="-30.5 0 229 59.75"><path fill="#1F54A5" d="M-28.867 57.195V38.669h4.566v2.478c1.697-1.957 3.653-3.001 5.87-3.001 1.174 0 2.218.264 3.131.784.914.525 1.565 1.305 2.087 2.217.912-.912 1.696-1.692 2.607-2.217.914-.521 1.958-.784 3.131-.784 1.436 0 2.48.264 3.394.913.912.524 1.695 1.306 2.217 2.479.392.652.522 1.96.522 3.784v11.873H-6.3V46.629c0-1.958-.129-3.131-.521-3.652-.392-.654-1.173-1.044-2.087-1.044-.653 0-1.304.26-1.958.651-.654.394-1.043 1.046-1.305 1.826-.262.913-.391 2.219-.391 3.914v8.873h-4.958V47.021c0-1.827-.131-3.001-.261-3.522-.131-.521-.391-.912-.783-1.174-.392-.262-.912-.394-1.564-.394-.783 0-1.435.26-1.958.651a3.386 3.386 0 0 0-1.435 1.825c-.262.655-.391 1.958-.391 3.787v9.001h-4.955M6.095 46.365h7.438c-.13-1.432-.523-2.607-1.175-3.262a3.213 3.213 0 0 0-2.479-1.173c-1.174 0-2.087.392-2.74 1.173-.651.784-1.044 1.829-1.044 3.262m-2.74-5.478c1.696-1.828 3.654-2.74 6.133-2.74 2.739 0 4.958.912 6.652 2.74 1.566 1.83 2.349 4.698 2.218 8.481H6.095c0 1.434.394 2.607 1.176 3.393.783.782 1.695 1.171 2.871 1.171.652 0 1.304-.128 1.826-.52.522-.394.914-1.177 1.305-2.088l4.826.782c-.651 1.825-1.564 3.262-3 4.173-1.306.916-3.001 1.306-5.088 1.306-3.262 0-5.612-1.043-7.178-3.128-1.172-1.696-1.826-3.786-1.826-6.395.001-2.996.784-5.478 2.348-7.175zM29.448 53.804c1.174 0 2.086-.523 2.869-1.435.783-1.044 1.175-2.479 1.175-4.437 0-2.088-.392-3.652-1.175-4.566-.783-.912-1.697-1.434-2.869-1.434-1.175 0-2.218.521-3.001 1.434-.783.914-1.174 2.216-1.174 4.175s.261 3.393.783 4.306c.914 1.304 1.957 1.957 3.392 1.957m1.697 3.132a7.928 7.928 0 0 1-3.132.65c-2.217 0-4.044-.782-5.478-2.479-1.566-1.694-2.349-4.174-2.349-7.306 0-3.128.783-5.478 2.215-7.175 1.566-1.697 3.394-2.48 5.61-2.48 2.218 0 4.045.913 5.48 2.612v-9.264h4.959v25.702h-4.566v-2.738c-.783 1.174-1.696 1.952-2.739 2.478zM42.233 36.06v-4.564h4.828v4.565l-4.828-.001m0 21.135V38.669h4.828v18.526h-4.828zM52.41 40.759c1.696-1.7 3.913-2.612 6.652-2.612 2.217 0 4.045.525 5.349 1.569 1.304.911 2.349 2.347 3.001 4.433l-4.958.785c-.13-.914-.521-1.697-1.173-2.09-.521-.521-1.303-.782-2.217-.782-1.174 0-2.216.392-2.871 1.304-.782.912-1.172 2.217-1.172 4.175 0 2.217.391 3.785 1.172 4.697.784.912 1.826 1.435 3.001 1.435.914 0 1.697-.26 2.349-.782.522-.521.912-1.434 1.174-2.74l4.826.784c-.392 2.216-1.435 3.782-2.87 4.958-1.434 1.174-3.26 1.696-5.739 1.696-2.74 0-4.826-.783-6.522-2.478-1.566-1.696-2.349-4.175-2.349-7.176s.781-5.482 2.347-7.176M69.891 38.669h4.957v8.48c0 2.61.131 4.176.262 4.825.129.653.52 1.044 1.043 1.438.393.391 1.044.52 1.695.52.915 0 1.697-.261 2.351-.782.654-.392 1.173-1.043 1.303-1.696.261-.653.393-2.217.393-4.961V38.67h4.957v18.526h-4.565v-2.741c-.653 1.045-1.567 1.825-2.741 2.35a7.612 7.612 0 0 1-3.39.782c-1.303 0-2.479-.262-3.393-.782-1.044-.524-1.827-1.304-2.218-2.35-.391-.913-.651-2.348-.651-4.045l-.003-11.741M104.332 55.891c-1.434 1.174-3.521 1.695-6.26 1.695-2.479 0-4.566-.521-6.002-1.437a7.89 7.89 0 0 1-3.001-4.303l4.957-.653c.262.916.656 1.697 1.305 2.22.653.391 1.566.652 2.741.652 1.173 0 2.216-.263 2.87-.652.391-.393.653-.784.653-1.304 0-.393-.131-.784-.394-.916-.13-.26-.652-.521-1.566-.649-4.044-.913-6.521-1.695-7.565-2.479-1.434-.912-2.216-2.349-2.216-4.176 0-1.563.651-2.87 1.825-4.044 1.305-1.174 3.263-1.699 6.001-1.699 2.479 0 4.435.396 5.611 1.309 1.302.781 2.216 1.955 2.608 3.651l-4.696.913c-.131-.783-.522-1.303-1.043-1.697a4.513 4.513 0 0 0-2.351-.649c-1.303 0-2.217.26-2.868.649-.394.131-.522.521-.522.913 0 .395.129.651.522.911.39.393 1.956.785 4.563 1.436 2.609.651 4.438 1.306 5.482 2.218 1.042.782 1.564 1.957 1.564 3.653.001 1.698-.782 3.135-2.218 4.438"/><path fill="#F68B1F" d="M108.897 38.669h2.741v2.61c.648-.913 1.432-1.696 2.345-2.22.916-.65 2.089-.914 3.393-.914 1.306 0 2.479.267 3.392.914.913.523 1.437 1.306 1.828 2.349 1.435-2.215 3.392-3.263 5.741-3.263 1.825 0 3.26.526 4.302 1.567.916 1.046 1.436 2.609 1.436 4.697v12.785h-3.13V45.456a13.66 13.66 0 0 0-.261-2.737c-.264-.523-.652-.916-1.174-1.306-.521-.392-1.174-.521-1.827-.521-1.436 0-2.479.391-3.261 1.304-.913.911-1.306 2.216-1.306 4.173v10.829h-3.26V45.191c0-1.434-.264-2.607-.651-3.261-.523-.651-1.436-1.044-2.61-1.044-.911 0-1.695.263-2.478.653-.783.521-1.305 1.177-1.564 2.091-.395.909-.525 2.217-.525 3.91v9.656h-3.129l-.002-18.527M143.861 54.976c.912 0 1.826-.262 2.739-.784.914-.521 1.434-1.176 1.696-1.957.391-.786.521-1.957.521-3.653V38.67h3.128v18.523h-2.736v-2.738c-1.436 2.088-3.522 3.13-5.998 3.13-1.046 0-2.091-.131-3.002-.521-.914-.391-1.698-1.043-2.09-1.697-.521-.653-.911-1.436-1.042-2.35-.131-.648-.131-1.564-.131-2.869V38.667h3.131v10.307c0 1.566 0 2.61.129 3.26a2.684 2.684 0 0 0 1.303 1.958c.655.522 1.438.784 2.352.784M165.385 41.539c-.519-.393-1.174-.652-2.084-.652-1.438 0-2.613.393-3.527 1.304-.911.913-1.432 2.479-1.432 4.828v10.174h-3.262V38.669h2.868v2.61c1.438-2.09 3.395-3.134 6.002-3.134 1.177 0 2.09.267 3.001.657.911.389 1.696.913 2.217 1.563.392.65.784 1.436.912 2.349l.261 3.13v11.351h-3.261V45.977c0-1.303-.129-2.348-.26-3-.258-.655-.782-1.046-1.435-1.438M175.954 39.454c1.177-.915 2.611-1.309 4.175-1.309 1.174 0 2.087.264 2.872.786a5.12 5.12 0 0 1 2.216 1.827v-9.264h3.13v25.702h-2.999v-2.35c-1.176 1.827-2.874 2.738-5.219 2.738-1.438 0-2.871-.391-4.045-1.176a8.188 8.188 0 0 1-2.871-3.39c-.652-1.434-1.042-3.13-1.042-5.086 0-1.827.261-3.525.912-5.091.651-1.435 1.566-2.607 2.871-3.387m-.522 8.481c0 2.348.522 4.175 1.565 5.349.913 1.174 2.088 1.824 3.523 1.824s2.607-.52 3.523-1.694c.911-1.176 1.434-2.87 1.434-5.219 0-2.479-.522-4.437-1.434-5.61-1.044-1.176-2.219-1.825-3.655-1.825s-2.609.649-3.521 1.825c-.913 1.175-1.435 2.869-1.435 5.35zM191.61 35.147v-3.655h3.13v3.655h-3.13m0 22.048V38.669h3.13v18.526h-3.13zM-29.78 25.363C-12.43 17.797 5.704 12.056 24.489 8.01c19.31-4.044 38.879-6.13 58.579-6.13 19.697 0 39.268 2.086 58.575 6.13 18.916 4.046 37.181 9.785 54.531 17.481l-1.566 3.783c-17.351-7.567-35.223-13.308-53.748-17.221-18.915-4.045-38.224-6.002-57.792-6.002-19.57 0-38.747 1.957-57.664 6.002a279.144 279.144 0 0 0-53.619 17.222l-1.565-3.912"/></svg>